<svg xmlns="http://www.w3.org/2000/svg" viewBox="0 0 183 169"><linearGradient id="A" gradientUnits="userSpaceOnUse" x1="91.213" y1="161" x2="91.213" y2="4.333"><stop offset="0" stop-color="#fff"/><stop offset=".131" stop-color="#fefdf8"/><stop offset=".318" stop-color="#fcf8e6"/><stop offset=".538" stop-color="#f8f0c7"/><stop offset=".781" stop-color="#f3e49c"/><stop offset="1" stop-color="#edd870"/></linearGradient><path d="M42.56 161h97.3c21.7-14.95 35.87-39.6 35.87-67.52 0-45.62-37.84-89.15-84.53-89.15-46.68 0-84.53 43.53-84.53 89.15.01 27.9 14.2 52.57 35.88 67.52z" opacity=".42" fill="url(#A)"/><ellipse cx="88.21" cy="160.53" rx="89.08" ry="3.51" opacity=".43" fill="#cee5ed"/><path d="M55.1 118.28h4.05v38.76H55.1z" fill="#aac6ce"/><path d="M55.1 118.28h4.05v5.45H55.1z" fill="#85b0ba"/><path d="M74.74 157.05H40.77a2.35 2.35 0 0 0-2.35 2.35v1.2H77.1v-1.2a2.35 2.35 0 0 0-2.35-2.35zM47.5 118.32h28.1c-10.22-3.67-6.27-38.24-4.38-51.35a4.38 4.38 0 0 0-4.34-5h-18.7c-3.83 0-7.07 2.82-7.6 6.6-1.64 11.9-4.23 36.6.9 46.16 1.2 2.22 3.53 3.58 6.04 3.58z" fill="#aac6ce"/><path d="M81.9 151.32l-.4 2.74 2.1 2.67 5.3-2.6.57-2.5-6.58-1z" fill="#f2bf75"/><path d="M86.16 160.14l.55-.68c.1-.12.3-.13.4-.01l.55.64a1.13 1.13 0 0 0 .89.4l12.3-.2c.23-.24.3-.65.02-.93-1.8-1.82-11.5-4.96-11.98-5.22-.48-.26-3.45 2.04-7.37-.08 0 0-.64 3.08-.73 5.07-.04.8.6 1.5 1.42 1.48l3.12-.05a1.09 1.09 0 0 0 .85-.41z" fill="#37454d"/><path d="M59.34 105s-5.1 5.64 4.24 11.77c6.55 4.3 11.72 3 15.83 5.6.96.6 1.7 1.52 1.77 2.66l.2 26.37.5.25c2.48 1.23 5.38 1.26 7.88.1l3.72-30.08c.13-2.07-1-3.82-2.27-5.46-7.14-9.1-19.8-12.17-23-12.7-4.17-.7-8.9 1.5-8.9 1.5z" fill="#cb473e"/><path d="M61.57 151.3l-.43 2.74 2.05 2.7 5.32-2.52.6-2.5-6.57-1.08z" fill="#f2bf75"/><path d="M65.72 160.2l.56-.67c.1-.12.3-.12.4 0l.54.65a1.15 1.15 0 0 0 .88.41l12.3-.04c.24-.24.3-.65.03-.93-1.78-1.84-11.42-5.12-11.9-5.4s-3.47 2-7.37-.18c0 0-.68 3.07-.8 5.06-.05.8.58 1.5 1.4 1.5h3.12a1.07 1.07 0 0 0 .86-.4z" fill="#37454d"/><path d="M43.83 100.1s-6.18 6.9 2.76 14.67c6.27 5.46 11.9 3.13 15.85 6.45.93.78 1.57 1.84 1.47 3.05l-2.82 26.82.2.14c2.47 1.6 5.58 1.8 8.24.56l7-28.26c.44-2.16-.5-4.16-1.6-6.06-6.2-10.58-15.94-16.88-19.23-17.9-4.28-1.3-11.87.52-11.87.52z" fill="#cb473e"/><path d="M77.94 121.62a12.26 12.26 0 0 0-1.44-.5c-.26-1.26-.88-2.48-1.57-3.65-3.07-5.24-7.02-9.44-10.62-12.45 2.24-.38 3.38-.86 4-1.5 1.23.2 3.7.76 6.7 1.82 3.04 5.08 3.03 13.33 2.92 16.27z" fill="#8f3e3b"/><path d="M60.48 63.63s-8.92-1.2-12.62 5.76c-3.7 6.95-9.24 34.18-4.4 35 2.14.37 7.85 1.8 14.18 1.34 8.7-.64 10.6-1.44 11.22-3.1l5.54-25.38c.13-3.5-1.42-6.85-4.2-8.96-4.44-3.37-9.7-4.68-9.7-4.68z" fill="#cee5ed"/><path d="M74.37 75.04s.12 15.28 4.92 16.2c4.8.93 17.6.64 17.6.64v4.86H69.45l4.92-21.7z" fill="#aac6ce"/><path d="M67.73 68.1l1.08-5.4-7-5.34-1.34 6.37c-.01.01 2.2 9.74 7.27 4.38z" fill="#ea9249"/><path d="M76.67 52.4s-3.67 1.78-9.04-1.5c0 0-1.25 2.24-4.85 4.24 0 0-1.87-3.14-2.95-.8-.33.7-.48 1.35-.5 1.92-3.37-4.36-1-10.1 2.15-13.2 2.98-2.94 9.43-1.77 13.46-.15 4.28 1.72 5.06-1.27 5.06-1.27 5.42 7.62-3.33 10.73-3.33 10.73z" fill="#1e394c"/><path d="M62.78 55.14s-1.87-3.14-2.95-.8C58.52 57.2 60 59 61.77 59c0 0 1.4 7.42 8.22 6.9 6.8-.52 7.8-11.47 6.68-13.5 0 0-3.67 1.8-9.04-1.5 0 0-1.25 2.25-4.85 4.24z" fill="#f2bf75"/><path d="M121.85 72.5H93.4c-1.4 0-2.6 1-2.9 2.36l-3.8 18.56h34.47l3.55-17.38c.37-1.83-1.03-3.54-2.9-3.54z" fill="#cee5ed"/><path d="M121.08 93.42h-47a1.4 1.4 0 0 0-1.4 1.4v.45a1.4 1.4 0 0 0 1.4 1.4h47a1.4 1.4 0 0 0 1.4-1.4v-.45a1.39 1.39 0 0 0-1.4-1.4z" fill="#80a9b2"/><path d="M121.08 93.42H86.35a1.4 1.4 0 0 1 1.4 1.4v.45a1.4 1.4 0 0 1-1.4 1.4h34.73a1.4 1.4 0 0 0 1.4-1.4v-.45a1.39 1.39 0 0 0-1.4-1.4z" fill="#aac6ce"/><path d="M75.6 92.42l-23.74-2.5c-3.36-.35 3.94-13.9 4.75-18.53.8-4.63-2.72-4.8-2.72-4.8-2-.25-4.17 0-6.02 2.8-3.8 5.74-8.02 22.53-5.8 26.67.26.5.77.78 1.32.78h32.2v-4.4z" fill="#cee5ed"/><path d="M75.6 92.42l-24.32-1.96C47.92 90 54.9 76.13 55.7 71.5s-2.78-4.44-2.78-4.44c-.9-.1-2.2.02-3.12.3 1.34-.88 2.74-.94 4.07-.78 0 0 3.53.18 2.72 4.8s-7.06 17.9-4.95 18.4c2.6.65 18.4 2 23.94 2.63z" fill="#aac6ce"/><path d="M75.6 96.92h7.46c.56 0 .9-.62.6-1.1-.7-1.07-1.8-2.6-2.6-2.85-.48-.15-4.1-.02-5.44.12v3.82z" fill="#f2bf75"/><path d="M76.67 52.4s-.6.3-1.7.42l-.34 2.4c-.12 1.3.53 5.38.12 5.4s-1.25-.03-1.25-.03-.62 5.88-6.5 4.94l-.15-.02c.9.32 1.92.48 3.12.4 6.82-.53 7.8-11.48 6.7-13.5z" opacity=".67" fill="#ea9249"/><path d="M141.45 96.86H18.9a2.49 2.49 0 0 0-2.49 2.49v.8a2.49 2.49 0 0 0 2.49 2.49h122.56a2.49 2.49 0 0 0 2.49-2.49v-.8a2.49 2.49 0 0 0-2.49-2.49z" fill="#1c2855"/><path d="M141.45 96.86H18.9a2.49 2.49 0 0 0-2.49 2.49v.8c0 .26.05.5.13.75.32-1 1.25-1.74 2.36-1.74h122.56c1.1 0 2.04.73 2.36 1.74.08-.24.13-.5.13-.75v-.8a2.49 2.49 0 0 0-2.49-2.49z" fill="#cb473e"/><g fill="#37454d"><path d="M57.63 160.4h-4.1l-28.5-57.72h4.1z"/><path d="M12.53 160.4h4.1l28.5-57.72h-4.1zm133.33 0h-4.1l-28.5-57.72h4.1z"/><path d="M100.76 160.4h4.1l28.5-57.72h-4.1z"/></g><path d="M30.26 104.97l-1.13-2.3h-4.1l1.13 2.3zm13.74 0l1.13-2.3h-4.1l-1.13 2.3zm74.5 0l-1.13-2.3h-4.1l1.13 2.3zm13.72 0l1.13-2.3h-4.1l-1.13 2.3z" fill="#1a3651"/></svg>